# xmcd
# 
# Track frame offsets:
#     150
#     12220
#     24485
#     36612
#     49142
#     63442
#     76292
#     91405
#     107287
#     119865
#     130137
#     141512
#     158165
#     174297
#     190290
#     206227
#     224912
#     237130
#     250122
#     260975
#     275447
# 
# Disc length: 3846
# 
# Revision: 7
# Processed by: cddbd v1.5.2PL0 Copyright (c) Steve Scherf et al.
# Submitted via: fre:ac v1.0.27
# 
DISCID=400f0415
DTITLE=Various Artist - Country - Modern To Timeless Country Classics
DYEAR=1999
DGENRE=Country
TTITLE0=Dolly Parton - Jolene
TTITLE1=Patsy Cline - Crazy
TTITLE2=Tammy Wynette - Stand By Your Man
TTITLE3=Jonny Cash - San Quentin
TTITLE4=Glen Campbell - Rhinestone Cowboy
TTITLE5=Kenny Rogers - Ruby, Don't Take Your Love To Town
TTITLE6=Don Williams - I Recall A Gypsy Woman
TTITLE7=Willie Nelson - Always On My Mind
TTITLE8=Roy Orbison - Cryin'
TTITLE9=Kris Kristofferson - Help Me Make It Through The Night
TTITLE10=Crystal Gayle - Don't It Make My Brown Eyes Blue
TTITLE11=Emmylou Harris - Here, There And Everywhere
TTITLE12=Linda Ronstadt - Poor Poor Pitiful Me
TTITLE13=Rita Coolidge - We're All Alone
TTITLE14=Billie Jo Spears - Blanket On The Ground
TTITLE15=Kenny Rogers and Dolly Parton - Islands In The Stream
TTITLE16=Charlie Rich - The Most Beautiful Girl
TTITLE17=Marty Robbins - Devil Woman
TTITLE18=Jim Reeves - He'll Have A Go
TTITLE19=The Bellamy Bros - Let Your Love Flow
TTITLE20=Dr Hook - When You're In Love With A Beautiful Woman
EXTD=
EXTT0=
EXTT1=
EXTT2=
EXTT3=
EXTT4=
EXTT5=
EXTT6=
EXTT7=
EXTT8=
EXTT9=
EXTT10=
EXTT11=
EXTT12=
EXTT13=
EXTT14=
EXTT15=
EXTT16=
EXTT17=
EXTT18=
EXTT19=
EXTT20=
PLAYORDER=
